<mxfile host="app.diagrams.net" modified="2021-02-04T23:20:53.607Z" agent="5.0 (X11; Linux x86_64) AppleWebKit/537.36 (KHTML, like Gecko) Chrome/88.0.4324.96 Safari/537.36" etag="g0oSE2KSrovcbz78dcmh" version="14.2.9" type="github">
  <diagram id="30oosYWvfeAUpXBhgOTh" name="Page-1">
    <mxGraphModel dx="1027" dy="549" grid="1" gridSize="10" guides="1" tooltips="1" connect="1" arrows="1" fold="1" page="1" pageScale="1" pageWidth="827" pageHeight="1169" background="#F1FAEE" math="0" shadow="0">
      <root>
        <mxCell id="0" />
        <mxCell id="1" parent="0" />
        <mxCell id="B5_JI7qkVv0Ob8KXsR4E-1" value="Pool" style="swimlane;html=1;childLayout=stackLayout;resizeParent=1;resizeParentMax=0;startSize=20;fillColor=#A8DADC;strokeColor=#457B9D;fontColor=#1D3557;" parent="1" vertex="1">
          <mxGeometry x="160" y="50" width="600" height="750" as="geometry" />
        </mxCell>
        <mxCell id="B5_JI7qkVv0Ob8KXsR4E-2" value="Arduino" style="swimlane;html=1;startSize=20;fillColor=#A8DADC;strokeColor=#457B9D;fontColor=#1D3557;" parent="B5_JI7qkVv0Ob8KXsR4E-1" vertex="1">
          <mxGeometry y="20" width="200" height="730" as="geometry" />
        </mxCell>
        <mxCell id="B5_JI7qkVv0Ob8KXsR4E-13" value="Raccolta dati" style="shape=parallelogram;perimeter=parallelogramPerimeter;whiteSpace=wrap;html=1;fixedSize=1;fillColor=#A8DADC;strokeColor=#457B9D;fontColor=#1D3557;" parent="B5_JI7qkVv0Ob8KXsR4E-2" vertex="1">
          <mxGeometry x="20" y="40" width="120" height="60" as="geometry" />
        </mxCell>
        <mxCell id="B5_JI7qkVv0Ob8KXsR4E-14" value="Prima elaborazione&lt;br&gt;e invio" style="whiteSpace=wrap;html=1;fillColor=#A8DADC;strokeColor=#457B9D;fontColor=#1D3557;" parent="B5_JI7qkVv0Ob8KXsR4E-2" vertex="1">
          <mxGeometry x="20" y="120" width="120" height="60" as="geometry" />
        </mxCell>
        <mxCell id="B5_JI7qkVv0Ob8KXsR4E-15" value="" style="edgeStyle=orthogonalEdgeStyle;rounded=1;orthogonalLoop=1;jettySize=auto;html=1;strokeColor=#457B9D;fontColor=#1D3557;labelBackgroundColor=#F1FAEE;" parent="B5_JI7qkVv0Ob8KXsR4E-2" source="B5_JI7qkVv0Ob8KXsR4E-13" target="B5_JI7qkVv0Ob8KXsR4E-14" edge="1">
          <mxGeometry relative="1" as="geometry" />
        </mxCell>
        <mxCell id="B5_JI7qkVv0Ob8KXsR4E-41" value="Socket client" style="rounded=0;whiteSpace=wrap;html=1;fillColor=#A8DADC;strokeColor=#457B9D;fontColor=#1D3557;" parent="B5_JI7qkVv0Ob8KXsR4E-2" vertex="1">
          <mxGeometry x="20" y="230" width="120" height="60" as="geometry" />
        </mxCell>
        <mxCell id="B5_JI7qkVv0Ob8KXsR4E-3" value="HTTP api" style="swimlane;html=1;startSize=20;fillColor=#A8DADC;strokeColor=#457B9D;fontColor=#1D3557;" parent="B5_JI7qkVv0Ob8KXsR4E-1" vertex="1">
          <mxGeometry x="200" y="20" width="200" height="730" as="geometry" />
        </mxCell>
        <mxCell id="B5_JI7qkVv0Ob8KXsR4E-10" value="Endpoint input1" style="rounded=0;whiteSpace=wrap;html=1;fillColor=#A8DADC;strokeColor=#457B9D;fontColor=#1D3557;" parent="B5_JI7qkVv0Ob8KXsR4E-3" vertex="1">
          <mxGeometry x="40" y="40" width="120" height="60" as="geometry" />
        </mxCell>
        <mxCell id="B5_JI7qkVv0Ob8KXsR4E-12" value="Endpoint input2" style="rounded=0;whiteSpace=wrap;html=1;fillColor=#A8DADC;strokeColor=#457B9D;fontColor=#1D3557;" parent="B5_JI7qkVv0Ob8KXsR4E-3" vertex="1">
          <mxGeometry x="40" y="120" width="120" height="60" as="geometry" />
        </mxCell>
        <mxCell id="B5_JI7qkVv0Ob8KXsR4E-26" style="edgeStyle=orthogonalEdgeStyle;rounded=1;orthogonalLoop=1;jettySize=auto;html=1;entryX=1;entryY=0.5;entryDx=0;entryDy=0;strokeColor=#457B9D;fontColor=#1D3557;labelBackgroundColor=#F1FAEE;" parent="B5_JI7qkVv0Ob8KXsR4E-3" source="B5_JI7qkVv0Ob8KXsR4E-20" target="B5_JI7qkVv0Ob8KXsR4E-23" edge="1">
          <mxGeometry relative="1" as="geometry">
            <Array as="points">
              <mxPoint x="180" y="230" />
              <mxPoint x="180" y="320" />
            </Array>
          </mxGeometry>
        </mxCell>
        <mxCell id="B5_JI7qkVv0Ob8KXsR4E-20" value="Endpoint input3" style="rounded=0;whiteSpace=wrap;html=1;fillColor=#A8DADC;strokeColor=#457B9D;fontColor=#1D3557;" parent="B5_JI7qkVv0Ob8KXsR4E-3" vertex="1">
          <mxGeometry x="40" y="200" width="120" height="60" as="geometry" />
        </mxCell>
        <mxCell id="B5_JI7qkVv0Ob8KXsR4E-29" style="edgeStyle=orthogonalEdgeStyle;rounded=1;orthogonalLoop=1;jettySize=auto;html=1;strokeColor=#457B9D;fontColor=#1D3557;labelBackgroundColor=#F1FAEE;" parent="B5_JI7qkVv0Ob8KXsR4E-3" source="B5_JI7qkVv0Ob8KXsR4E-23" target="B5_JI7qkVv0Ob8KXsR4E-28" edge="1">
          <mxGeometry relative="1" as="geometry" />
        </mxCell>
        <mxCell id="B5_JI7qkVv0Ob8KXsR4E-23" value="Elaborazione" style="rounded=0;whiteSpace=wrap;html=1;fillColor=#A8DADC;strokeColor=#457B9D;fontColor=#1D3557;" parent="B5_JI7qkVv0Ob8KXsR4E-3" vertex="1">
          <mxGeometry x="40" y="290" width="120" height="60" as="geometry" />
        </mxCell>
        <mxCell id="B5_JI7qkVv0Ob8KXsR4E-24" style="edgeStyle=orthogonalEdgeStyle;rounded=1;orthogonalLoop=1;jettySize=auto;html=1;entryX=1;entryY=0.5;entryDx=0;entryDy=0;strokeColor=#457B9D;fontColor=#1D3557;labelBackgroundColor=#F1FAEE;" parent="B5_JI7qkVv0Ob8KXsR4E-3" source="B5_JI7qkVv0Ob8KXsR4E-10" target="B5_JI7qkVv0Ob8KXsR4E-23" edge="1">
          <mxGeometry relative="1" as="geometry">
            <mxPoint x="180" y="330" as="targetPoint" />
            <Array as="points">
              <mxPoint x="180" y="70" />
              <mxPoint x="180" y="320" />
            </Array>
          </mxGeometry>
        </mxCell>
        <mxCell id="B5_JI7qkVv0Ob8KXsR4E-28" value="Endpoint pubblici" style="rounded=0;whiteSpace=wrap;html=1;fillColor=#A8DADC;strokeColor=#457B9D;fontColor=#1D3557;" parent="B5_JI7qkVv0Ob8KXsR4E-3" vertex="1">
          <mxGeometry x="40" y="400" width="120" height="60" as="geometry" />
        </mxCell>
        <mxCell id="B5_JI7qkVv0Ob8KXsR4E-45" style="edgeStyle=orthogonalEdgeStyle;rounded=1;orthogonalLoop=1;jettySize=auto;html=1;entryX=0.5;entryY=0;entryDx=0;entryDy=0;strokeColor=#457B9D;fontColor=#1D3557;labelBackgroundColor=#F1FAEE;" parent="B5_JI7qkVv0Ob8KXsR4E-3" source="B5_JI7qkVv0Ob8KXsR4E-38" target="B5_JI7qkVv0Ob8KXsR4E-42" edge="1">
          <mxGeometry relative="1" as="geometry" />
        </mxCell>
        <mxCell id="B5_JI7qkVv0Ob8KXsR4E-38" value="Endpoint admin con registrazione necessaria" style="rounded=0;whiteSpace=wrap;html=1;fillColor=#A8DADC;strokeColor=#457B9D;fontColor=#1D3557;" parent="B5_JI7qkVv0Ob8KXsR4E-3" vertex="1">
          <mxGeometry x="40" y="485" width="120" height="60" as="geometry" />
        </mxCell>
        <mxCell id="B5_JI7qkVv0Ob8KXsR4E-42" value="Socket server" style="rounded=0;whiteSpace=wrap;html=1;fillColor=#A8DADC;strokeColor=#457B9D;fontColor=#1D3557;" parent="B5_JI7qkVv0Ob8KXsR4E-3" vertex="1">
          <mxGeometry x="40" y="580" width="120" height="60" as="geometry" />
        </mxCell>
        <mxCell id="B5_JI7qkVv0Ob8KXsR4E-4" value="Sito" style="swimlane;html=1;startSize=20;fillColor=#A8DADC;strokeColor=#457B9D;fontColor=#1D3557;" parent="B5_JI7qkVv0Ob8KXsR4E-1" vertex="1">
          <mxGeometry x="400" y="20" width="200" height="730" as="geometry" />
        </mxCell>
        <mxCell id="B5_JI7qkVv0Ob8KXsR4E-30" value="Dato1" style="rounded=0;whiteSpace=wrap;html=1;fillColor=#A8DADC;strokeColor=#457B9D;fontColor=#1D3557;" parent="B5_JI7qkVv0Ob8KXsR4E-4" vertex="1">
          <mxGeometry x="40" y="50" width="120" height="60" as="geometry" />
        </mxCell>
        <mxCell id="B5_JI7qkVv0Ob8KXsR4E-31" value="Dato2" style="rounded=0;whiteSpace=wrap;html=1;fillColor=#A8DADC;strokeColor=#457B9D;fontColor=#1D3557;" parent="B5_JI7qkVv0Ob8KXsR4E-4" vertex="1">
          <mxGeometry x="40" y="150" width="120" height="60" as="geometry" />
        </mxCell>
        <mxCell id="B5_JI7qkVv0Ob8KXsR4E-32" value="Dato3" style="rounded=0;whiteSpace=wrap;html=1;fillColor=#A8DADC;strokeColor=#457B9D;fontColor=#1D3557;" parent="B5_JI7qkVv0Ob8KXsR4E-4" vertex="1">
          <mxGeometry x="40" y="250" width="120" height="60" as="geometry" />
        </mxCell>
        <mxCell id="B5_JI7qkVv0Ob8KXsR4E-37" value="Sezione admin" style="text;html=1;strokeColor=none;fillColor=none;align=center;verticalAlign=middle;whiteSpace=wrap;rounded=0;fontColor=#1D3557;" parent="B5_JI7qkVv0Ob8KXsR4E-4" vertex="1">
          <mxGeometry x="80" y="420" width="40" height="20" as="geometry" />
        </mxCell>
        <mxCell id="B5_JI7qkVv0Ob8KXsR4E-40" value="&lt;span&gt;Input utente&lt;/span&gt;" style="shape=parallelogram;perimeter=parallelogramPerimeter;whiteSpace=wrap;html=1;fixedSize=1;fillColor=#A8DADC;strokeColor=#457B9D;fontColor=#1D3557;" parent="B5_JI7qkVv0Ob8KXsR4E-4" vertex="1">
          <mxGeometry x="30" y="460" width="120" height="60" as="geometry" />
        </mxCell>
        <mxCell id="B5_JI7qkVv0Ob8KXsR4E-16" style="edgeStyle=orthogonalEdgeStyle;rounded=1;orthogonalLoop=1;jettySize=auto;html=1;entryX=0;entryY=0.5;entryDx=0;entryDy=0;strokeColor=#457B9D;fontColor=#1D3557;labelBackgroundColor=#F1FAEE;" parent="B5_JI7qkVv0Ob8KXsR4E-1" source="B5_JI7qkVv0Ob8KXsR4E-14" target="B5_JI7qkVv0Ob8KXsR4E-10" edge="1">
          <mxGeometry relative="1" as="geometry">
            <Array as="points">
              <mxPoint x="170" y="170" />
              <mxPoint x="170" y="90" />
            </Array>
          </mxGeometry>
        </mxCell>
        <mxCell id="B5_JI7qkVv0Ob8KXsR4E-18" style="edgeStyle=orthogonalEdgeStyle;rounded=1;orthogonalLoop=1;jettySize=auto;html=1;strokeColor=#457B9D;fontColor=#1D3557;labelBackgroundColor=#F1FAEE;" parent="B5_JI7qkVv0Ob8KXsR4E-1" source="B5_JI7qkVv0Ob8KXsR4E-14" target="B5_JI7qkVv0Ob8KXsR4E-12" edge="1">
          <mxGeometry relative="1" as="geometry">
            <Array as="points">
              <mxPoint x="160" y="170" />
              <mxPoint x="160" y="170" />
            </Array>
          </mxGeometry>
        </mxCell>
        <mxCell id="B5_JI7qkVv0Ob8KXsR4E-21" style="edgeStyle=orthogonalEdgeStyle;rounded=1;orthogonalLoop=1;jettySize=auto;html=1;entryX=0;entryY=0.5;entryDx=0;entryDy=0;strokeColor=#457B9D;fontColor=#1D3557;labelBackgroundColor=#F1FAEE;" parent="B5_JI7qkVv0Ob8KXsR4E-1" source="B5_JI7qkVv0Ob8KXsR4E-14" target="B5_JI7qkVv0Ob8KXsR4E-20" edge="1">
          <mxGeometry relative="1" as="geometry">
            <Array as="points">
              <mxPoint x="170" y="170" />
              <mxPoint x="170" y="250" />
            </Array>
          </mxGeometry>
        </mxCell>
        <mxCell id="B5_JI7qkVv0Ob8KXsR4E-33" style="edgeStyle=orthogonalEdgeStyle;orthogonalLoop=1;jettySize=auto;html=1;entryX=0;entryY=0.5;entryDx=0;entryDy=0;rounded=1;strokeColor=#457B9D;fontColor=#1D3557;labelBackgroundColor=#F1FAEE;" parent="B5_JI7qkVv0Ob8KXsR4E-1" source="B5_JI7qkVv0Ob8KXsR4E-28" target="B5_JI7qkVv0Ob8KXsR4E-30" edge="1">
          <mxGeometry relative="1" as="geometry">
            <Array as="points">
              <mxPoint x="420" y="450" />
              <mxPoint x="420" y="100" />
            </Array>
          </mxGeometry>
        </mxCell>
        <mxCell id="B5_JI7qkVv0Ob8KXsR4E-34" style="edgeStyle=orthogonalEdgeStyle;orthogonalLoop=1;jettySize=auto;html=1;entryX=0;entryY=0.5;entryDx=0;entryDy=0;rounded=1;strokeColor=#457B9D;fontColor=#1D3557;labelBackgroundColor=#F1FAEE;" parent="B5_JI7qkVv0Ob8KXsR4E-1" source="B5_JI7qkVv0Ob8KXsR4E-28" target="B5_JI7qkVv0Ob8KXsR4E-31" edge="1">
          <mxGeometry relative="1" as="geometry">
            <Array as="points">
              <mxPoint x="420" y="450" />
              <mxPoint x="420" y="200" />
            </Array>
          </mxGeometry>
        </mxCell>
        <mxCell id="B5_JI7qkVv0Ob8KXsR4E-35" style="edgeStyle=orthogonalEdgeStyle;orthogonalLoop=1;jettySize=auto;html=1;entryX=0;entryY=0.5;entryDx=0;entryDy=0;rounded=1;strokeColor=#457B9D;fontColor=#1D3557;labelBackgroundColor=#F1FAEE;" parent="B5_JI7qkVv0Ob8KXsR4E-1" source="B5_JI7qkVv0Ob8KXsR4E-28" target="B5_JI7qkVv0Ob8KXsR4E-32" edge="1">
          <mxGeometry relative="1" as="geometry">
            <Array as="points">
              <mxPoint x="420" y="450" />
              <mxPoint x="420" y="300" />
            </Array>
          </mxGeometry>
        </mxCell>
        <mxCell id="B5_JI7qkVv0Ob8KXsR4E-39" style="edgeStyle=orthogonalEdgeStyle;rounded=1;orthogonalLoop=1;jettySize=auto;html=1;entryX=1;entryY=0.5;entryDx=0;entryDy=0;strokeColor=#457B9D;fontColor=#1D3557;labelBackgroundColor=#F1FAEE;" parent="B5_JI7qkVv0Ob8KXsR4E-1" target="B5_JI7qkVv0Ob8KXsR4E-38" edge="1">
          <mxGeometry relative="1" as="geometry">
            <mxPoint x="440" y="510" as="sourcePoint" />
            <Array as="points">
              <mxPoint x="420" y="510" />
              <mxPoint x="420" y="535" />
            </Array>
          </mxGeometry>
        </mxCell>
        <mxCell id="B5_JI7qkVv0Ob8KXsR4E-44" value="" style="endArrow=classic;startArrow=classic;html=1;strokeColor=#457B9D;entryX=0;entryY=0.5;entryDx=0;entryDy=0;exitX=1;exitY=0.5;exitDx=0;exitDy=0;fontColor=#1D3557;labelBackgroundColor=#F1FAEE;" parent="B5_JI7qkVv0Ob8KXsR4E-1" source="B5_JI7qkVv0Ob8KXsR4E-41" target="B5_JI7qkVv0Ob8KXsR4E-42" edge="1">
          <mxGeometry width="50" height="50" relative="1" as="geometry">
            <mxPoint x="350" y="480" as="sourcePoint" />
            <mxPoint x="400" y="430" as="targetPoint" />
            <Array as="points">
              <mxPoint x="170" y="280" />
              <mxPoint x="170" y="630" />
            </Array>
          </mxGeometry>
        </mxCell>
        <mxCell id="B5_JI7qkVv0Ob8KXsR4E-25" style="edgeStyle=orthogonalEdgeStyle;rounded=1;orthogonalLoop=1;jettySize=auto;html=1;strokeColor=#457B9D;fontColor=#1D3557;labelBackgroundColor=#F1FAEE;" parent="1" source="B5_JI7qkVv0Ob8KXsR4E-12" edge="1">
          <mxGeometry relative="1" as="geometry">
            <mxPoint x="520" y="390" as="targetPoint" />
            <Array as="points">
              <mxPoint x="540" y="220" />
              <mxPoint x="540" y="390" />
            </Array>
          </mxGeometry>
        </mxCell>
      </root>
    </mxGraphModel>
  </diagram>
</mxfile>
